<svg width="182" height="182" viewBox="0 0 182 182" fill="none" xmlns="http://www.w3.org/2000/svg">
<g clip-path="url(#clip0_22_9)">
<mask id="path-1-inside-1_22_9" fill="white">
<path d="M101.897 8.97522C104.107 8.97522 105.897 10.7661 105.897 12.9752V21.9752C105.897 24.1844 104.107 25.9752 101.897 25.9752H30C27.7909 25.9752 26 27.7661 26 29.9752V152.209C26 154.418 27.7909 156.209 30 156.209H152.233C154.443 156.209 156.233 154.418 156.233 152.209V80.3112C156.233 78.102 158.024 76.3112 160.233 76.3112H169.233C171.443 76.3112 173.233 78.102 173.233 80.3112V169.209C173.233 171.418 171.443 173.209 169.233 173.209H13C10.7909 173.209 9 171.418 9 169.209V12.9752C9 10.7661 10.7909 8.97522 13 8.97522H101.897Z"/>
</mask>
<path d="M101.897 8.97522C104.107 8.97522 105.897 10.7661 105.897 12.9752V21.9752C105.897 24.1844 104.107 25.9752 101.897 25.9752H30C27.7909 25.9752 26 27.7661 26 29.9752V152.209C26 154.418 27.7909 156.209 30 156.209H152.233C154.443 156.209 156.233 154.418 156.233 152.209V80.3112C156.233 78.102 158.024 76.3112 160.233 76.3112H169.233C171.443 76.3112 173.233 78.102 173.233 80.3112V169.209C173.233 171.418 171.443 173.209 169.233 173.209H13C10.7909 173.209 9 171.418 9 169.209V12.9752C9 10.7661 10.7909 8.97522 13 8.97522H101.897Z" fill="black"/>
<path d="M105.897 12.9752H104.897V21.9752H105.897H106.897V12.9752H105.897ZM101.897 25.9752V24.9752H30V25.9752V26.9752H101.897V25.9752ZM26 29.9752H25V152.209H26H27V29.9752H26ZM30 156.209V157.209H152.233V156.209V155.209H30V156.209ZM156.233 152.209H157.233V80.3112H156.233H155.233V152.209H156.233ZM160.233 76.3112V77.3112H169.233V76.3112V75.3112H160.233V76.3112ZM173.233 80.3112H172.233V169.209H173.233H174.233V80.3112H173.233ZM169.233 173.209V172.209H13V173.209V174.209H169.233V173.209ZM9 169.209H10V12.9752H9H8V169.209H9ZM13 8.97522V9.97522H101.897V8.97522V7.97522H13V8.97522ZM9 12.9752H10C10 11.3184 11.3431 9.97522 13 9.97522V8.97522V7.97522C10.2386 7.97522 8 10.2138 8 12.9752H9ZM13 173.209V172.209C11.3431 172.209 10 170.865 10 169.209H9H8C8 171.97 10.2386 174.209 13 174.209V173.209ZM173.233 169.209H172.233C172.233 170.865 170.89 172.209 169.233 172.209V173.209V174.209C171.995 174.209 174.233 171.97 174.233 169.209H173.233ZM169.233 76.3112V77.3112C170.89 77.3112 172.233 78.6543 172.233 80.3112H173.233H174.233C174.233 77.5497 171.995 75.3112 169.233 75.3112V76.3112ZM156.233 80.3112H157.233C157.233 78.6543 158.577 77.3112 160.233 77.3112V76.3112V75.3112C157.472 75.3112 155.233 77.5497 155.233 80.3112H156.233ZM152.233 156.209V157.209C154.995 157.209 157.233 154.97 157.233 152.209H156.233H155.233C155.233 153.865 153.89 155.209 152.233 155.209V156.209ZM26 152.209H25C25 154.97 27.2386 157.209 30 157.209V156.209V155.209C28.3431 155.209 27 153.865 27 152.209H26ZM30 25.9752V24.9752C27.2386 24.9752 25 27.2138 25 29.9752H26H27C27 28.3184 28.3431 26.9752 30 26.9752V25.9752ZM105.897 21.9752H104.897C104.897 23.6321 103.554 24.9752 101.897 24.9752V25.9752V26.9752C104.659 26.9752 106.897 24.7366 106.897 21.9752H105.897ZM105.897 12.9752H106.897C106.897 10.2138 104.659 7.97522 101.897 7.97522V8.97522V9.97522C103.554 9.97522 104.897 11.3184 104.897 12.9752H105.897Z" fill="black" mask="url(#path-1-inside-1_22_9)"/>
<path d="M168.702 5.69457C169.806 5.69458 170.702 6.58999 170.702 7.69454L170.702 53.4205C170.702 55.2024 168.548 56.0947 167.288 54.8348L121.561 9.10818C120.301 7.84824 121.194 5.69394 122.976 5.69397L168.702 5.69457Z" fill="black"/>
<rect x="94.4881" y="65.6494" width="73.9051" height="22.9927" rx="2" transform="rotate(-45 94.4881 65.6494)" fill="black"/>
</g>
<defs>
<clipPath id="clip0_22_9">
<rect width="182" height="182" fill="white"/>
</clipPath>
</defs>
</svg>
