<svg width="76" height="81" viewBox="0 0 76 81" fill="none" xmlns="http://www.w3.org/2000/svg">
<path d="M38 0C54.9089 0.000207831 68.6375 14.3945 68.8418 32.2324C72.8641 32.6531 75.9996 36.0539 76 40.1875V72.4707C75.9998 76.8888 72.4181 80.4707 68 80.4707H8C3.58185 80.4707 0.000212525 76.8888 0 72.4707V40.1875C0.00040982 36.0543 3.13539 32.6535 7.15723 32.2324C7.36148 14.3945 21.0911 0.00021433 38 0ZM32.1885 47.3887V65.2705H43.8115V47.3887H32.1885ZM38 10C27.1365 10.0002 17.3811 19.3771 17.1582 32.1875H58.8418C58.6189 19.3771 48.8635 10.0002 38 10Z" fill="black"/>
</svg>
