<svg width="100" height="100" viewBox="0 0 100 100" fill="none" xmlns="http://www.w3.org/2000/svg">
<g clip-path="url(#clip0_14_27)">
<rect width="100" height="100" fill="white"/>
<path d="M50 8C52.2091 8 54 9.79086 54 12V12C54 14.2091 52.2091 16 50 16H21C17.6863 16 15 18.6863 15 22V79C15 82.3137 17.6863 85 21 85H78C81.3137 85 84 82.3137 84 79V50C84 47.7909 85.7909 46 88 46V46C90.2091 46 92 47.7909 92 50V87C92 90.3137 89.3137 93 86 93H13C9.68629 93 7 90.3137 7 87V14C7 10.6863 9.68629 8 13 8H50Z" fill="black"/>
<rect x="41" y="45.7077" width="40" height="17" rx="2" transform="rotate(-45 41 45.7077)" fill="black"/>
<path d="M89.231 8.61551C90.3356 8.61551 91.231 9.51094 91.231 10.6155V39.0181C91.231 40.7999 89.0768 41.6923 87.8168 40.4323L59.4142 12.0297C58.1543 10.7698 59.0466 8.61551 60.8284 8.61551H89.231Z" fill="black"/>
</g>
<defs>
<clipPath id="clip0_14_27">
<rect width="100" height="100" fill="white"/>
</clipPath>
</defs>
</svg>
